<svg class="svg-icon" style="width: 1.0009765625em; height: 1em;vertical-align: middle;fill: currentColor;overflow: hidden;" viewBox="0 0 1025 1024" version="1.1" xmlns="http://www.w3.org/2000/svg"><path d="M182.857143 146.285714q0 41.179429-36.571429 62.829714l0 723.456q0 7.460571-5.412571 12.873143t-12.873143 5.412571l-36.571429 0q-7.460571 0-12.873143-5.412571t-5.412571-12.873143l0-723.456q-36.571429-21.723429-36.571429-62.829714 0-30.281143 21.430857-51.712t51.712-21.430857 51.712 21.430857 21.430857 51.712zM1024 182.857143l0 436.004571q0 14.262857-7.168 22.016t-22.601143 15.725714q-122.88 66.267429-210.870857 66.267429-34.889143 0-70.582857-12.580571t-62.025143-27.428571-65.974857-27.428571-81.408-12.580571q-109.714286 0-265.142857 83.456-9.728 5.12-18.870857 5.12-14.848 0-25.746286-10.825143t-10.825143-25.746286l0-424.009143q0-18.285714 17.700571-31.451429 11.995429-7.972571 45.129143-24.576 134.875429-68.534857 240.566857-68.534857 61.147429 0 114.322286 16.603429t125.147429 50.322286q21.723429 10.825143 50.322286 10.825143 30.866286 0 67.145143-11.995429t62.829714-26.843429 50.322286-26.843429 31.158857-11.995429q14.848 0 25.746286 10.825143t10.825143 25.746286z"  /></svg>